Coordinates
version=1
nRows=11
nColumns=40
inDegrees=yes

Units are S.I. units (second, meters, Newtons, ...)
Angles are in degrees.

endheader
time	pelvis_tilt	pelvis_list	pelvis_rotation	pelvis_tx	pelvis_ty	pelvis_tz	hip_flexion_r	hip_adduction_r	hip_rotation_r	knee_angle_r	knee_angle_r_beta	ankle_angle_r	subtalar_angle_r	mtp_angle_r	hip_flexion_l	hip_adduction_l	hip_rotation_l	knee_angle_l	knee_angle_l_beta	ankle_angle_l	subtalar_angle_l	mtp_angle_l	lumbar_extension	lumbar_bending	lumbar_rotation	arm_flex_r	arm_add_r	arm_rot_r	elbow_flex_r	pro_sup_r	wrist_flex_r	wrist_dev_r	arm_flex_l	arm_add_l	arm_rot_l	elbow_flex_l	pro_sup_l	wrist_flex_l	wrist_dev_l
     48.41500000	     -3.81249552	     -4.77079917	      3.51150409	      0.82118510	      0.91623221	      0.45893559	      0.60044749	      0.09589410	    -13.37157598	     24.95352013	     24.95352013	     18.75204139	     -4.14879893	     -3.97594452	     28.89242992	     -5.81701234	     -1.79951076	     26.72215341	     26.72215341	      4.30088090	    -15.98743129	      3.15779778	     -8.44567912	      4.91973882	      3.35595601	     29.35352987	    -16.05889993	      4.27958823	     93.51975050	     44.13016552	      0.00000000	      0.00000000	     -6.63459964	     -9.08131018	     -1.20425383	     36.11055890	     45.51526296	      0.00000000	      0.00000000
     48.42828571	     -3.95444145	     -4.74429510	      3.31266677	      0.82141652	      0.91731461	      0.45624737	      1.74661671	     -0.33818993	    -12.76696806	     27.37423766	     27.37423766	     16.29956401	     -6.73657582	     -8.43440560	     28.57339971	     -5.72131862	     -2.02164438	     26.94524939	     26.94524939	      5.75834923	    -15.54711988	      4.79321575	     -8.34259326	      4.82996814	      3.51689828	     27.46528847	    -16.22506922	      4.29575083	     92.72506915	     44.25779292	      0.00000000	      0.00000000	     -4.95030614	     -8.69154695	     -3.86385239	     35.32077194	     45.87838810	      0.00000000	      0.00000000
     48.44157143	     -4.00798332	     -4.59635930	      3.07560508	      0.82160320	      0.91845963	      0.45358128	      3.15576453	     -1.07041234	    -12.50081402	     30.62820087	     30.62820087	     15.25607935	     -8.07059763	     -8.89675146	     27.95341391	     -5.55251651	     -2.47151628	     26.77753776	     26.77753776	      6.30506566	    -15.28470550	      4.43184135	     -8.36708761	      4.61505687	      3.42751933	     25.80883555	    -16.18750968	      4.66603725	     91.59613383	     44.28571797	      0.00000000	      0.00000000	     -3.88418533	     -8.93496061	     -4.01371847	     35.84524831	     45.91232439	      0.00000000	      0.00000000
     48.45485714	     -4.08069125	     -4.46191613	      2.85063751	      0.82163121	      0.91944973	      0.45104441	      4.75908954	     -1.75911489	    -12.17391516	     34.09628543	     34.09628543	     13.94842157	     -9.72937331	     -9.36419409	     27.35146750	     -5.40291620	     -2.94923841	     26.57696476	     26.57696476	      6.81938031	    -14.94507484	      4.00675574	     -8.36208588	      4.41539619	      3.35106261	     24.07492769	    -16.12388250	      4.97870575	     90.20362075	     44.32304539	      0.00000000	      0.00000000	     -2.76908211	     -9.21747202	     -4.14352812	     36.41788054	     45.94438008	      0.00000000	      0.00000000
     48.46814286	     -4.16387405	     -4.30834005	      2.62093598	      0.82148282	      0.92030840	      0.44862989	      6.50739009	     -2.44583490	    -11.82355475	     37.68078166	     37.68078166	     12.41943979	    -11.53885174	     -9.68005855	     26.76545004	     -5.24812498	     -3.47708160	     26.35729488	     26.35729488	      7.27504067	    -14.55513943	      3.52759164	     -8.37837207	      4.20495624	      3.24464616	     22.33331971	    -16.01797861	      5.22863449	     88.60613213	     44.36839923	      0.00000000	      0.00000000	     -1.63573137	     -9.54427967	     -4.23753721	     37.03732881	     45.97235283	      0.00000000	      0.00000000
     48.48142857	     -4.20393096	     -4.14384793	      2.41729521	      0.82120375	      0.92105489	      0.44628928	      8.30614761	     -3.12980215	    -11.53853647	     41.31643026	     41.31643026	     10.82935385	    -13.33917978	     -9.71242797	     26.15269006	     -5.08228857	     -4.02259485	     26.14648493	     26.14648493	      7.69677607	    -14.14846768	      3.03292342	     -8.44333965	      4.00383625	      3.08724573	     20.57716412	    -15.86111192	      5.44826286	     86.90186110	     44.41665170	      0.00000000	      0.00000000	     -0.47207268	     -9.92582710	     -4.29331437	     37.69030677	     45.99639762	      0.00000000	      0.00000000
     48.49471429	     -4.23803583	     -3.97928655	      2.23353114	      0.82078273	      0.92164270	      0.44409228	     10.18659882	     -3.78343977	    -11.26817337	     44.94358710	     44.94358710	      9.24679701	    -15.07364714	     -9.40448500	     25.55141071	     -4.91380745	     -4.53480127	     25.93752832	     25.93752832	      8.11516364	    -13.72560261	      2.50321932	     -8.50689541	      3.77210186	      2.91502649	     18.80546952	    -15.70172072	      5.61456924	     85.00367918	     44.47212961	      0.00000000	      0.00000000	      0.72781379	    -10.34009440	     -4.30919406	     38.38817466	     46.01654747	      0.00000000	      0.00000000
     48.50800000	     -4.30650685	     -3.89483364	      2.04886054	      0.82015112	      0.92217692	      0.44203853	     12.18596663	     -4.24519555	    -10.88715885	     48.50123621	     48.50123621	      8.22417747	    -16.48806168	     -7.04893030	     25.00346311	     -4.87306563	     -5.15099470	     25.68692009	     25.68692009	      8.16771839	    -13.12170154	      1.13428358	     -8.51001331	      3.70060490	      2.57366520	     17.70823753	    -14.90504213	      5.10018681	     80.82500806	     44.64703945	      0.00000000	      0.00000000	      1.61776295	    -10.94984173	     -3.79221149	     39.45876362	     45.97455717	      0.00000000	      0.00000000
     48.52128571	     -4.31205890	     -3.64049036	      1.86019305	      0.81941567	      0.92261696	      0.43987336	     14.08737726	     -5.00181126	    -10.69792803	     51.80869734	     51.80869734	      7.07249981	    -17.45443574	     -6.25150715	     24.39530024	     -4.57921680	     -5.63136739	     25.47352501	     25.47352501	      8.49980205	    -12.89476392	      0.77980563	     -8.66842606	      3.45914608	      2.35005428	     15.81023504	    -14.90155348	      5.39629259	     79.17206791	     44.68862681	      0.00000000	      0.00000000	      2.83981810	    -11.42707216	     -3.79854765	     40.15179317	     45.99502518	      0.00000000	      0.00000000
     48.53457143	     -4.31786257	     -3.55009829	      1.71359023	      0.81855639	      0.92308777	      0.43799318	     16.16412955	     -5.38701221	    -10.31348691	     55.21432208	     55.21432208	      8.03668946	    -17.46440186	      0.58528790	     23.78057026	     -4.46210272	     -6.02068263	     25.16518905	     25.16518905	      8.50201000	    -12.65464882	     -0.56336174	     -8.72405259	      3.38438045	      1.84556934	     14.90456279	    -14.11693996	      4.99258825	     74.45536461	     44.88804020	      0.00000000	      0.00000000	      3.73869265	    -12.25448242	     -2.66955340	     41.31857098	     45.90417781	      0.00000000	      0.00000000
     48.54785714	     -4.25286399	     -3.37294428	      1.58524818	      0.81766901	      0.92365440	      0.43602746	     17.86985786	     -5.94646348	    -10.16294207	     57.72571130	     57.72571130	      7.10396537	    -18.13672117	      0.98332920	     23.13884479	     -4.21591256	     -6.31925866	     24.97406283	     24.97406283	      8.88184831	    -12.44566670	     -0.77982219	     -8.99498719	      3.26436294	      1.65218414	     12.90102806	    -14.22531170	      5.26374410	     72.92724199	     44.92339533	      0.00000000	      0.00000000	      5.07955583	    -12.76588172	     -2.77991102	     41.96032069	     45.93781521	      0.00000000	      0.00000000
